<svg xmlns="http://www.w3.org/2000/svg" width="35.914" height="27" viewBox="0 0 35.914 27">
  <g id="Group_2" data-name="Group 2" transform="translate(-570.55 -145)">
    <g id="Group_1" data-name="Group 1" transform="translate(570.55 145)">
      <path id="Path_1" data-name="Path 1" d="M587.16,163V150.143L576.874,145l-3.857,11.571Z" transform="translate(-569.845 -145)" fill="#5ac7f4"/>
      <path id="Path_2" data-name="Path 2" d="M595.3,145l-10.286,5.143V163l14.143-6.429Z" transform="translate(-566.417 -145)" fill="#5ac7f4"/>
      <path id="Path_3" data-name="Path 3" d="M596.865,164l-1.629-1.228,2.262-1.027,4.51,2.255v-2.571l-1.575-1.018,6.031-2.742L602.575,146h-1.355l3.659,10.976-15.728,7.151h-1.286l-15.729-7.151L575.794,146h-1.355l-3.889,11.668,6.031,2.742-1.574,1.018V164l4.509-2.255,2.262,1.027L580.15,164v1.286l-6.429,3.857v2.571l12.509-6.917,1.634.742h1.286l1.633-.742,12.51,6.917v-2.571l-6.429-3.857Z" transform="translate(-570.55 -144.714)" fill="#5ac7f4"/>
    </g>
  </g>
</svg>
